# xmcd
#
# Track frame offsets:
#	150
#	14037
#	27371
#	41260
#	54253
#	68335
#	81430
#	95301
#	110486
#	124770
#	137889
#	150888
#	164300
#	178871
#	190816
#	203683
#	217163
#	232368
#
# Disc length: 3292 seconds
#
# Revision: 0
# Processed by: cddbd v1.5PL3 Copyright (c) Steve Scherf et al.
# Submitted via: dBpowerAMP V4.0
#
DISCID=f60cda12
DTITLE=Rosa Henderson - The Essential Rosa Henderson [CD2]
DYEAR=2001
DGENRE=blues
TTITLE0=My Papa Doesn't Two-Time No Time
TTITLE1=Clearing House Blues
TTITLE2=Slow Up Papa
TTITLE3=I'm Saving It All for You
TTITLE4=Do That Thing
TTITLE5=Nobody Knows the Way I Feel Dis Mornin'
TTITLE6=Mama Is Waitin' for You
TTITLE7=Can't Be Bothered With No Sheik
TTITLE8=I'm a Good Gal (But I'm a Thousan' Miles from Home)
TTITLE9=You Get Mad
TTITLE10=Hey Hey and He He, I'm Charleston Crazy
TTITLE11=The Basement Blues
TTITLE12=Doggone Blues
TTITLE13=Fortune Teller Blues
TTITLE14=Twelth Street Blues
TTITLE15=Penitentiary Blues
TTITLE16=Do Right Blues
TTITLE17=How Come You Do Me Like You Do?
EXTD=
EXTT0=
EXTT1=
EXTT2=
EXTT3=
EXTT4=
EXTT5=
EXTT6=
EXTT7=
EXTT8=
EXTT9=
EXTT10=
EXTT11=
EXTT12=
EXTT13=
EXTT14=
EXTT15=
EXTT16=
EXTT17=
PLAYORDER=
